<?xml version="1.0" encoding="UTF-8"?>
<svg xmlns="http://www.w3.org/2000/svg" viewBox="0 0 64 64" width="64" height="64">
  <title>Rsync App — Disk with sync arrows</title>
  <defs>
    <linearGradient id="diskGrad" x1="0%" y1="0%" x2="0%" y2="100%">
      <stop offset="0%" stop-color="#5dade2"/>
      <stop offset="100%" stop-color="#21618c"/>
    </linearGradient>
  </defs>
  <!-- Disk body -->
  <circle cx="32" cy="32" r="29" fill="url(#diskGrad)"/>
  <circle cx="32" cy="32" r="29" fill="none" stroke="#1b4f72" stroke-width="1.5"/>
  <!-- Subtle top highlight to suggest a glossy surface -->
  <ellipse cx="32" cy="16" rx="20" ry="6" fill="#ffffff" opacity="0.18"/>
  <!-- Centered sync glyph (Material-style two-arrows refresh), white on blue -->
  <g transform="translate(11.2, 11.2) scale(1.733)" fill="#ffffff">
    <path d="M12 4V1L8 5l4 4V6c3.31 0 6 2.69 6 6 0 1.01-.25 1.97-.7 2.8l1.46 1.46C19.54 15.03 20 13.57 20 12c0-4.42-3.58-8-8-8zm0 14c-3.31 0-6-2.69-6-6 0-1.01.25-1.97.7-2.8L5.24 7.74C4.46 8.97 4 10.43 4 12c0 4.42 3.58 8 8 8v3l4-4-4-4v3z"/>
  </g>
</svg>
